<?xml version="1.0" standalone="no"?> <!DOCTYPE svg PUBLIC "-//W3C//DTD SVG 1.0//EN" "http://www.w3.org/TR/2001/REC-SVG-20010904/DTD/svg10.dtd" > <svg xmlns="http://www.w3.org/2000/svg" width="100%" height="100%">
<defs >
<font id="quicksand-regular" horiz-adv-x="504" ><font-face
    font-family="Quicksand"
    units-per-em="1000"
    panose-1="2 7 3 3 0 0 0 6 0 0"
    ascent="950"
    descent="-216"
    alphabetic="0" />
<missing-glyph horiz-adv-x="500" />
<glyph unicode=" " glyph-name="space" horiz-adv-x="300" />
<glyph unicode="!" glyph-name="exclam" horiz-adv-x="252" d="M93 174V676Q93 686 100 693T117 700T134 693T142 676V174Q142 164 135 157T118 149T100 156T93 174ZM93 24V48Q93 58 100 65T117 72T134 65T142 48V24Q142 14 135 7T117 0T100 7T93 24Z" />
<glyph unicode="&quot;" glyph-name="quotedbl" horiz-adv-x="410" d="M308 702H327Q343 702 343 685Q343 684 338 661L281 460Q275 442 264 442Q247 442 250 461L280 676Q284 702 308 702ZM128 702H147Q163 702 163 685Q163 684 158 661L101 460Q95 442 84 442Q70
442 70 456Q70 458 70 461L100 676Q104 702 128 702Z" />
<glyph unicode="#" glyph-name="numbersign" horiz-adv-x="700" d="M69 187Q59 187 52 193T45 210T52 227T69 234H178L219 470H109Q99 470 92 476T85 493T92 510T109 517H227L255 682Q258 704 280 704Q292 704 298 695T302 675L275 517H482L510 682Q513 704 535
704Q547 704 553 695T557 675L530 517H630Q640 517 647 511T654 494T647 477T630 470H522L481 234H590Q600 234 607 228T614 211T607 194T590 187H473L444 18Q441 -4 419 -4Q407 -4 401 5T397 25L425 187H218L189 18Q186 -4 164 -4Q152 -4 146 5T142 25L170 187H69ZM226
234H433L474 470H267L226 234Z" />
<glyph unicode="$" glyph-name="dollar" horiz-adv-x="632" d="M297 738Q297 748 304 755T321 762T338 755T345 738V698Q439 690 523 628Q537 617 537 606T530 588T512 580T493 587Q423 643 343 652V372Q457 348 508 304T559 183T499 55T345 0V-78Q345 -88 338
-95T321 -102T304 -95T297 -78V1Q172 11 72 98Q61 107 61 118T68 136T86 144T104 137Q190 57 299 46V331Q187 356 137 400T87 519T146 646T297 700V738ZM417 46T462 84T508 179T473 267T343 321V45Q417 46 462 84ZM227 654T183 616T138 524T172 437T299 382V655Q227
654 183 616Z" />
<glyph unicode="&amp;" glyph-name="ampersand" horiz-adv-x="696" d="M565 360Q565 303 502 276Q507 251 507 229Q507 134 440 67T278 0T117 67T49 229Q49 286 75 336T148 418Q104 465 104 533T153 650T273 700T392 651T442 531Q442 521 435 514T417 507T400
514T393 531Q393 581 358 616T273 651T188 616T153 526T204 434Q215 425 215 418T213 405Q209 392 195 389Q151 365 125 323T98 229Q98 155 151 102T278 49T405 102T458 229Q458 248 453 270Q442 272 423 272Q291 272 291 190L295 160Q295 144 278 138Q275 137
271 137Q252 137 247 154Q242 159 242 190Q242 242 277 275Q323 321 423 321Q447 321 458 319H474Q491 322 502 330Q516 344 516 363T514 393Q511 403 516 412Q524 423 539 423T562 404Q565 381 565 360Z" />
<glyph unicode="&apos;" glyph-name="quotesingle" horiz-adv-x="230" d="M128 702H147Q163 702 163 685Q163 684 158 661L101 460Q95 442 84 442Q70 442 70 456Q70 458 70 461L100 676Q104 702 128 702Z" />
<glyph unicode="(" glyph-name="parenleft" horiz-adv-x="430" d="M119 28Q71 131 71 302T119 578Q176 703 293 703Q304 703 312 695T320 675T312 656T293 647Q213 646 169 554Q127 462 127 303T169 52Q214 -41 293 -41Q304 -41 312 -49T320 -69T312 -89T293 -97H291Q232
-97 188 -63T119 28Z" />
<glyph unicode=")" glyph-name="parenright" horiz-adv-x="430" d="M89 -97H87Q76 -97 68 -89T60 -70T68 -50T87 -41Q166 -41 211 52Q253 144 253 303T211 554Q167 646 87 647Q76 647 68 655T60 675T68 694T87 703Q204 703 261 578Q309 474 309 303T261 28Q236
-29 192 -63T89 -97Z" />
<glyph unicode="*" glyph-name="asterisk" horiz-adv-x="430" d="M112 471Q103 465 96 465T82 471T76 488T90 505L193 554L90 603Q76 610 76 622Q76 641 96 643Q103 643 112 637L203 575L195 684Q194 693 200 699T215 706T230 700T235 684L227 575L318 637Q327
643 334 643T348 637T354 620T340 603L237 554L340 505Q354 499 354 489T348 472T335 465T318 471L227 533L235 424Q236 415 230 409T215 402T200 408T195 424L203 533L112 471Z" />
<glyph unicode="+" glyph-name="plus" horiz-adv-x="620" d="M281 134V317H98Q84 317 74 326T64 350T74 374T98 384H281V567Q281 581 290 590T314 600T338 591T348 567V384H531Q545 384 554 374T564 350T555 327T531 317H348V134Q348 120 338 110T314 100T291
110T281 134Z" />
<glyph unicode="," glyph-name="comma" horiz-adv-x="230" d="M54 -90Q54 -82 62 -77Q109 -51 109 -7Q109 -4 109 0Q82 7 82 35V56Q82 70 91 79T115 89T138 80T148 56V31Q148 -46 119 -75T72 -105T54 -90Z" />
<glyph unicode="-" glyph-name="hyphen" horiz-adv-x="408" d="M85 328Q66 328 66 347T85 366H298Q317 366 317 348Q317 339 312 334T298 328H85Z" />
<glyph unicode="." glyph-name="period" horiz-adv-x="230" d="M82 29T82 50T96 85T132 100T167 86T182 50T168 15T132 0T97 14Z" />
<glyph unicode="/" glyph-name="slash" horiz-adv-x="422" d="M91 1Q75 9 75 18T78 34L351 682Q359 697 368 697Q391 697 396 682Q398 678 398 673T396 663L123 15Q117 0 106 0T91 1Z" />
<glyph unicode="0" glyph-name="zero" horiz-adv-x="710" d="M65 206T65 350T132 595Q205 700 307 700T482 595Q550 490 550 350T482 106Q410 0 307 0T135 103ZM114 478T114 350T173 133Q230 49 306 49T441 133Q501 223 501 350T443 564T306 651T171 565Z" />
<glyph unicode="1" glyph-name="one" horiz-adv-x="335" d="M169 24V629L70 571Q64 567 54 567T39 577T33 596T46 612L181 694Q186 697 191 697Q208 697 213 687T217 667V24Q217 14 210 7T193 0T176 7T169 24Z" />
<glyph unicode="2" glyph-name="two" horiz-adv-x="590" d="M71 0Q59 0 52 8T45 25T54 43L381 338Q441 393 441 466T391 595T266 651T139 605L105 574Q97 567 87 567T71 575T64 593T72 609L106 641Q173 700 268 700T429 625Q489 561 489 466T414 302L134 49H465Q475
49 482 42T489 24T482 7T465 0H71Z" />
<glyph unicode="3" glyph-name="three" horiz-adv-x="610" d="M486 337T486 238T416 70T248 0T81 70Q74 77 74 87T81 105T98 112T116 105Q172 51 249 51T381 105T436 238T382 370T249 425Q237 425 229 435H228Q220 442 220 453T228 471L402 650H134Q124 650 117
657T109 675T116 693T134 700H461Q472 700 479 693T486 677T483 664Q482 660 478 656L297 470Q367 456 417 406Q486 337 486 238Z" />
<glyph unicode="4" glyph-name="four" horiz-adv-x="664" d="M504 679Q504 678 505 675V192H552Q562 192 569 185T577 168T570 151T552 144H505V24Q505 14 498 7T480 0T463 7T456 24V144H74Q64 144 57 150T50 166T56 183L461 687Q472 698 483 698T504 679ZM456
192V602L125 192H456Z" />
<glyph unicode="5" glyph-name="five" horiz-adv-x="605" d="M64 381Q63 383 63 388T64 394L98 676Q98 687 108 694Q114 700 124 700H450Q460 700 467 693T475 675T468 657T450 650H145L120 442Q175 474 239 474Q338 474 406 406T475 237T405 69T237 0T70 69Q62
76 62 86T70 104T88 112T106 104Q162 50 238 50T370 105T425 238T371 370T239 424T106 369Q98 362 88 362Q71 362 65 377V378Q64 379 64 381Z" />
<glyph unicode="6" glyph-name="six" horiz-adv-x="642" d="M377 699Q378 699 383 699T394 693T401 676T395 659T378 650Q247 645 174 523Q141 466 124 383Q193 462 293 462T461 394T529 231T462 68T299 0T136 65T66 223Q64 238 64 269Q66 432 132 547Q215 693
377 699ZM115 231V227Q115 222 116 216T116 207Q125 140 176 95T300 49T427 102T481 231T427 359T298 413T169 360T115 231Z" />
<glyph unicode="7" glyph-name="seven" horiz-adv-x="587" d="M88 648Q78 648 71 655T64 672T71 689T88 696H458Q461 697 465 697Q481 697 486 680Q488 674 488 669T484 659L213 15Q206 0 196 0T179 3T168 15T167 34L426 648H88Z" />
<glyph unicode="8" glyph-name="eight" horiz-adv-x="630" d="M195 437Q137 482 137 548T179 657T281 700T385 658T428 549T368 437Q431 411 470 354T509 227Q509 132 443 66T282 0T122 66T55 227Q55 297 94 354T195 437ZM103 301T103 227T155 101T282 48T409
100T461 227T409 353T283 406T156 354ZM185 596T185 555T213 486T282 456Q323 457 351 486T380 555T352 623T283 652T214 624Z" />
<glyph unicode="9" glyph-name="nine" horiz-adv-x="642" d="M528 494L531 431Q531 270 464 152Q379 6 219 0H218Q207 0 200 6T193 23Q193 47 217 49Q349 54 421 176Q457 239 471 316Q404 239 303 239T134 306T66 469T134 632T294 700T451 642T527 496Q528 495
528 494ZM115 394T168 341T298 288T427 341T480 469T427 598T298 651T169 598T115 470Z" />
<glyph unicode=":" glyph-name="colon" horiz-adv-x="240" d="M87 29T87 50T101 85T137 100T172 86T187 50T173 15T137 0T102 14ZM87 449T87 470T101 505T137 520T172 506T187 470T173 435T137 420T102 434Z" />
<glyph unicode=";" glyph-name="semicolon" horiz-adv-x="240" d="M68 448T68 469T82 504T118 519T153 505T168 469T154 434T118 419T83 433ZM59 -90Q59 -82 67 -77Q114 -51 114 -7Q114 -4 114 0Q87 7 87 35V56Q87 70 96 79T120 89T143 80T153 56V31Q153 -46 124
-75T77 -105T59 -90Z" />
<glyph unicode="&lt;" glyph-name="less" horiz-adv-x="620" d="M70 369L386 689Q394 697 406 697T427 689Q434 680 434 668T427 647L129 348L427 48Q434 40 434 29T427 9T408 0T386 9L69 328Q60 337 60 344Q60 359 70 369Z" />
<glyph unicode="=" glyph-name="equal" horiz-adv-x="620" d="M107 214Q95 214 87 222T79 241T87 261T107 269H463Q475 269 483 261T491 242T483 222T463 214H107ZM107 430Q95 430 87 438T79 457T87 477T107 485H463Q475 485 483 477T491 458T483 438T463 430H107Z" />
<glyph unicode="&gt;" glyph-name="greater" horiz-adv-x="620" d="M92 17T92 28T99 48L397 348L99 647Q92 656 92 668T99 689Q107 697 119 697T140 689L457 368Q465 360 465 349Q465 336 456 327L140 9Q132 0 120 0T100 8Z" />
<glyph unicode="?" glyph-name="question" horiz-adv-x="534" d="M207 162V291Q207 301 214 307T230 314Q300 314 349 363T399 483T350 603T230 653Q183 653 145 630T84 568Q79 560 70 558T52 560Q40 567 40 576T44 592Q72 642 121 671T230 700Q319 700 382 637T446
487T391 340T254 269V162Q254 152 247 146T231 139T214 145T207 162ZM207 23V45Q207 55 214 62T230 69T247 62T254 45V23Q254 13 247 7T231 0T214 6T207 23Z" />
<glyph unicode="@" glyph-name="at" horiz-adv-x="980" d="M53 205T53 351T155 599T404 701T652 599T754 351Q754 263 717 191Q678 130 626 115Q619 113 606 113Q569 113 551 138T533 188V222Q479 162 405 162T278 217T225 350T277 483T404 538T529 483T581 351V191H582Q581
184 588 169Q593 162 606 162H614Q634 167 650 184T672 214Q705 274 705 351Q705 475 617 563T404 652T191 564T102 351T191 138T404 49Q450 49 479 57Q489 59 497 55T507 40Q511 30 506 22T490 11Q448 0 404 0Q258 0 156 102ZM277 408T277 351T314 254T403 214T494
254T532 351T494 448T404 489T315 449Z" />
<glyph unicode="A" glyph-name="A" horiz-adv-x="646" d="M581 1L572 0Q555 0 549 16L487 181H168L106 16Q100 0 83 0L74 1Q58 8 58 24Q58 29 60 33L303 682Q310 697 328 697T351 682L594 33Q596 28 596 24Q596 8 581 1ZM328 606L186 230H469L328 606Z" />
<glyph unicode="B" glyph-name="B" horiz-adv-x="594" d="M104 24V676Q104 686 111 693T128 700H284Q356 700 407 649T458 521T391 389Q451 368 489 317T528 200Q528 117 470 59T328 0H127Q117 0 111 7T104 24ZM153 49H328Q390 49 434 93T479 200Q478 262 434
306T328 351H153V49ZM153 401H284Q336 401 372 437T409 525T373 614T284 651H153V401Z" />
<glyph unicode="C" glyph-name="C" horiz-adv-x="771" d="M286 0T180 103T73 354T179 605T437 710Q563 710 663 633Q673 624 673 614T667 598Q661 589 651 588T633 593Q546 661 437 661Q306 661 214 571T122 354T214 138T428 49T631 117Q640 123 650 122T666 111Q673
104 672 93T663 76Q564 0 437 0Q286 0 180 103Z" />
<glyph unicode="D" glyph-name="D" horiz-adv-x="719" d="M259 0H126Q117 1 111 7T104 24V676Q104 686 111 693T128 700H259Q404 700 506 597T609 349T507 102T259 0ZM153 49H259Q384 49 472 137T560 349T472 562T259 651H153V49Z" />
<glyph unicode="E" glyph-name="E" horiz-adv-x="593" d="M104 24V676Q104 686 111 693T128 700H488Q498 700 505 693T512 676T505 658T488 651H153V374H446Q456 374 463 367T470 349T463 332T446 325H153V49H488Q498 49 505 42T512 25T505 7T488 0H126Q117 1
111 7T104 24Z" />
<glyph unicode="F" glyph-name="F" horiz-adv-x="605" d="M104 24V676Q104 698 127 700H489Q499 700 506 693T513 676T506 659T489 651H153V374H447Q458 374 465 367T472 350T465 332T447 325H153V24Q153 14 146 7T128 0T111 7T104 24Z" />
<glyph unicode="G" glyph-name="G" horiz-adv-x="814" d="M622 315H431Q420 315 413 322T406 339T413 357T431 364H650Q659 363 665 356T672 339V95Q670 83 663 77Q566 0 437 0Q286 1 180 104T73 355T179 606T437 710Q562 710 664 631Q672 625 672 615T666 596T650
587T632 593Q549 661 437 661Q306 661 214 572T122 355T214 139T437 49Q540 49 622 109V315Z" />
<glyph unicode="H" glyph-name="H" horiz-adv-x="709" d="M513 24V326H153V24Q153 14 146 7T128 0T111 7T104 24V676Q104 686 111 693T128 700T145 693T153 676V374H513V676Q513 686 520 693T537 700T554 693T562 676V24Q562 14 555 7T537 0T520 7T513 24Z" />
<glyph unicode="I" glyph-name="I" horiz-adv-x="305" d="M111 24V676Q111 686 118 693T135 700T152 693T160 676V24Q160 14 153 7T135 0T118 7T111 24Z" />
<glyph unicode="J" glyph-name="J" horiz-adv-x="594" d="M46 164Q45 168 45 173T48 185T62 195T81 194T92 180Q111 121 160 85T269 49Q270 49 272 49Q350 49 405 104T461 237V676Q461 686 468 693T485 700T502 693T509 676V237Q509 138 440 69T272 0Q194 0 132
46T46 164Z" />
<glyph unicode="K" glyph-name="K" horiz-adv-x="715" d="M104 24V673Q104 683 111 690T128 698T145 691T153 673V268L576 691Q584 698 594 698T611 691T618 674T610 656L342 388L616 40Q622 32 622 24T614 8T595 0T578 9L307 353L153 199V24Q153 14 146 7T128
0T111 7T104 24Z" />
<glyph unicode="L" glyph-name="L" horiz-adv-x="563" d="M488 0H128Q118 0 111 7T104 24V676Q104 686 111 693T128 700T145 693T153 676V49H488Q498 49 505 42T513 24T506 7T488 0Z" />
<glyph unicode="M" glyph-name="M" horiz-adv-x="844" d="M644 24V600L420 289Q413 278 400 278H398Q384 278 377 289L153 599V24Q153 14 146 7T129 0T112 7T104 24V672Q104 684 114 691Q121 698 131 698T150 687L399 342L647 687Q653 697 664 697T681 693Q692
682 692 672V24Q692 14 685 7T668 0T651 7T644 24Z" />
<glyph unicode="N" glyph-name="N" horiz-adv-x="771" d="M155 24Q155 14 148 7T131 0T114 7T107 24V666Q106 670 106 677T114 691T127 697Q144 697 150 687L574 99V669Q574 679 581 686T598 693T615 686T623 669V24Q623 14 616 7T597 0T579 9L575 13L155 597V24Z" />
<glyph unicode="O" glyph-name="O" horiz-adv-x="850" d="M74 503T172 606T410 710T648 607T746 355Q745 207 648 104T411 0T172 103T73 355Q74 503 172 606ZM291 660T207 572T122 356T206 138T409 49T611 138T696 355Q695 484 612 572T410 660Z" />
<glyph unicode="P" glyph-name="P" horiz-adv-x="583" d="M104 24V676Q104 686 111 693T128 700H326Q408 700 466 642T525 501T467 360T326 301L153 299V24Q153 14 146 7T128 0T111 7T104 24ZM153 348H326Q388 349 432 393T477 500T433 606T326 651H153V348Z" />
<glyph unicode="Q" glyph-name="Q" horiz-adv-x="844" d="M804 -49Q809 -56 809 -66T801 -85Q724 -144 643 -144H642Q565 -144 468 -87Q429 -65 392 -65T326 -73T291 -87H290Q276 -94 262 -85H261Q255 -76 253 -71T253 -56T265 -41L358 1Q233 18 150 119T66 360T164
605T402 710Q542 709 640 605T738 354Q738 245 681 157T532 26L431 -21Q466 -28 492 -43Q578 -95 641 -95T769 -45Q778 -39 787 -39T804 -49ZM116 481T116 354T200 138T402 48T604 137T688 354T604 570T402 659T200 570Z" />
<glyph unicode="R" glyph-name="R" horiz-adv-x="625" d="M516 11Q452 11 452 158Q452 222 395 264Q354 293 314 299Q314 299 309 301H139V24Q139 14 132 7T114 0T97 7T90 24V676Q90 685 96 692T112 700H312Q395 700 453 642T511 500Q511 441 480 392T396 319L406
314Q446 291 473 252T500 146T519 60Q521 60 523 60Q547 60 547 35Q547 18 530 12H528L518 11H516ZM377 351T420 395T463 501T419 607T312 651H139V349H316Q377 351 420 395Z" />
<glyph unicode="S" glyph-name="S" horiz-adv-x="667" d="M133 528Q135 428 335 390H337Q452 369 515 326Q592 276 592 194T515 55T333 -1Q201 0 75 100Q66 108 66 115T72 131Q78 138 87 139T103 134Q215 44 330 44Q332 44 333 44Q425 44 487 90Q547 133 547 194Q547
306 328 347H326Q89 391 89 528Q89 606 160 658T331 710Q374 710 417 696T485 668T547 629Q558 622 558 614T553 598T540 589T523 592Q487 615 465 628T405 653T331 666Q247 666 188 624Q133 583 133 528Z" />
<glyph unicode="T" glyph-name="T" horiz-adv-x="648" d="M285 24V651H74Q64 651 57 658T50 676T57 693T74 700H544Q554 700 561 693T568 676T561 659T544 651H333V24Q333 14 326 7T309 0T292 7T285 24Z" />
<glyph unicode="U" glyph-name="U" horiz-adv-x="814" d="M105 283V676Q105 686 112 693T129 700T146 693T154 676V283Q154 186 222 118T387 49Q485 50 553 118T622 283V676Q622 686 629 693T646 700T663 693T671 676V283Q671 166 588 83T388 0T188 83T105 283Z" />
<glyph unicode="V" glyph-name="V" horiz-adv-x="750" d="M356 0Q339 0 334 14Q333 14 333 16L332 17L61 662Q59 666 59 671Q59 687 74 694Q79 696 83 696Q100 696 106 682L356 86L607 682Q612 696 628 696Q644 696 651 680Q653 676 653 671T651 662L380 22Q378
7 366 2H365Q359 0 356 0Z" />
<glyph unicode="W" glyph-name="W" horiz-adv-x="1102" d="M761 0Q748 0 741 14Q741 16 740 17L562 440L383 17Q383 12 376 5Q366 0 359 0Q350 0 344 6T336 20L66 662Q64 667 64 671Q64 688 78 694Q83 696 87 696Q104 696 110 682L360 87L538 508Q546 523 562
523T586 508L763 87L1013 682Q1021 697 1030 697Q1052 697 1058 680Q1060 676 1060 672T1058 662L786 16Q780 2 766 0H761Z" />
<glyph unicode="X" glyph-name="X" horiz-adv-x="722" d="M86 5Q75 13 75 22T82 39L307 348L82 657Q76 664 76 674T86 691Q93 697 98 697Q114 697 120 687L337 389L554 687Q563 698 571 698T588 691Q598 684 598 674T593 657L367 348L593 39Q598 33 598 23T588
5Q580 0 571 0T554 11L337 308L120 11Q114 0 104 0T86 5Z" />
<glyph unicode="Y" glyph-name="Y" horiz-adv-x="604" d="M296 24V336L61 657Q56 666 56 674T64 690T78 697Q94 697 100 687L319 386L539 687Q545 697 555 697T573 691Q583 685 583 674T578 657L344 338V24Q344 14 337 7T320 0T303 7T296 24Z" />
<glyph unicode="Z" glyph-name="Z" horiz-adv-x="667" d="M96 0L89 1Q73 9 73 18Q73 36 81 42L522 648H98Q88 648 81 655T74 672T81 689T98 696H563Q566 697 569 697L583 692Q596 686 596 676T590 657L145 49H571Q581 49 588 42T595 25T588 7T571 0H96Z" />
<glyph unicode="[" glyph-name="bracketleft" horiz-adv-x="430" d="M98 -104V674Q98 684 106 692T124 700H356Q364 700 369 694T375 681T370 668T356 662H144V-92H356Q364 -92 369 -98T375 -111T370 -124T356 -130H124Q114 -130 106 -122T98 -104Z" />
<glyph unicode="\" glyph-name="backslash" horiz-adv-x="448" d="M372 3Q369 2 358 2T340 17L67 665Q65 670 65 675Q65 691 80 697Q86 699 95 699T112 684L385 36Q388 30 388 21T372 3Z" />
<glyph unicode="]" glyph-name="bracketright" horiz-adv-x="430" d="M332 674V-104Q332 -114 324 -122T306 -130H74Q66 -130 61 -124T55 -111T60 -98T74 -92H286V662H74Q66 662 61 668T55 681T60 694T74 700H306Q316 700 324 692T332 674Z" />
<glyph unicode="^" glyph-name="asciicircum" horiz-adv-x="500" d="M129 503Q119 489 100 489T80 500Q80 506 85 513L218 689Q233 707 246 707H254Q267 707 282 689L415 513Q420 506 420 500Q420 489 400 489T369 503L249 660L129 503Z" />
<glyph unicode="_" glyph-name="underscore" horiz-adv-x="600" d="M-2 -160Q-11 -160 -17 -154T-24 -138T-18 -123T-2 -116H602Q611 -116 617 -122T624 -138T618 -153T602 -160H-2Z" />
<glyph unicode="`" glyph-name="grave" horiz-adv-x="500" d="M299 601Q299 592 284 592T254 605L174 682Q163 693 163 700T177 715T206 723T233 705L295 612Q299 606 299 601Z" />
<glyph unicode="a" glyph-name="a" horiz-adv-x="619" d="M470 490T480 490T497 483T504 466V24Q504 14 497 7T480 0T463 7T456 24V97Q424 52 376 26T272 0Q176 0 108 72T40 245T108 418T272 490Q327 490 375 464T456 394V466Q456 476 463 483ZM88 163T142 106T272
48T402 105T456 245T402 385T273 443T143 385T88 245Z" />
<glyph unicode="b" glyph-name="b" horiz-adv-x="660" d="M93 24V676Q93 686 100 693T117 700T134 693T142 676V394Q175 438 224 464T330 490Q429 490 498 418T567 245T498 72T330 0Q273 0 224 25T142 95V24Q142 14 135 7T117 0T100 7T93 24ZM142 244Q142 163
197 106T330 49T463 106T518 244T463 383T331 441T200 386T142 252V244Z" />
<glyph unicode="c" glyph-name="c" horiz-adv-x="571" d="M205 0T132 71T58 245T131 419T301 490T466 436Q475 430 475 420T468 402T452 393T436 399Q381 443 303 443T166 385T106 245T165 106T302 48T436 91V91Q444 97 452 97T468 88T476 70T464 52Q397 0 310
0Q205 0 132 71Z" />
<glyph unicode="d" glyph-name="d" horiz-adv-x="660" d="M485 24V95Q452 51 403 26T297 0Q198 0 129 71T60 244T129 418T297 490Q354 490 403 464T485 394V676Q485 686 492 693T510 700T527 693T534 676V24Q534 14 527 7T510 0T493 7T485 24ZM109 163T164 106T296
49T427 103T485 236V252Q482 331 428 386T297 441T165 384T109 245Z" />
<glyph unicode="e" glyph-name="e" horiz-adv-x="609" d="M532 262V258Q532 248 525 242T508 236H106Q110 156 165 102T296 48Q345 48 387 72T454 137Q462 150 470 150T488 143T498 127T494 111Q462 60 410 30T296 0Q197 0 128 71T58 244T127 418T293 490T457
425T532 262ZM468 352T416 397T296 442T175 398T109 283H480Q468 352 416 397Z" />
<glyph unicode="f" glyph-name="f" horiz-adv-x="362" d="M285 699Q295 699 302 692T309 674T302 657T285 650Q239 650 221 630T203 550V498H272Q282 498 289 491T297 474T290 457T272 449H203V23Q203 13 196 6T179 -1T162 6T154 23V449H89Q79 449 72 456T65 474T72
491T89 498H154V550Q156 628 186 664Q218 699 285 699Z" />
<glyph unicode="g" glyph-name="g" horiz-adv-x="660" d="M521 466V39Q521 -56 454 -123T290 -191Q241 -191 188 -168Q175 -159 175 -151T178 -136Q185 -121 194 -121T210 -125Q248 -143 290 -143Q366 -143 419 -90T473 39V99Q442 54 394 29T290 3Q194 3 127 74T60
246T127 418T290 490Q345 490 393 464T473 394V466Q473 476 480 483T497 490T514 483T521 466ZM108 165T161 108T290 50T419 107T473 247T420 385T291 442T162 385T108 247Z" />
<glyph unicode="h" glyph-name="h" horiz-adv-x="613" d="M122 0H117Q93 0 93 24V676Q93 686 100 693T117 700T134 693T142 676V418Q203 490 293 490T442 436T502 297V24Q502 14 495 7T477 0T460 7T453 24V297Q453 360 408 400T298 441T187 401T142 297V21Q142
19 138 12T124 1Q123 0 122 0Z" />
<glyph unicode="i" glyph-name="i" horiz-adv-x="281" d="M94 24V466Q94 476 101 483T118 490T136 483T143 466V24Q143 14 136 7T118 0T101 7T94 24ZM94 603V626Q94 636 101 643T118 650T135 643T143 626V603Q143 592 136 585T118 577T101 584T94 603Z" />
<glyph unicode="j" glyph-name="j" horiz-adv-x="249" d="M57 603V626Q57 636 65 643T82 650T99 643T106 626V603Q106 593 99 586T83 578T65 585T57 603ZM9 -191T2 -185T-5 -168T2 -150T21 -143T44 -132T55 -106V465Q55 475 62 482T80 490T97 483T104 465V-106Q104
-142 80 -166T19 -191Q9 -191 2 -185Z" />
<glyph unicode="k" glyph-name="k" horiz-adv-x="560" d="M93 24V676Q93 686 100 693T117 700T134 693T142 676V205L432 494Q440 502 449 502L466 494Q474 487 474 478T466 460L277 271L467 40Q474 32 474 23T465 5Q459 0 447 0T430 9L242 236L142 136V24Q142
14 135 7T117 0T100 7T93 24Z" />
<glyph unicode="l" glyph-name="l" horiz-adv-x="249" d="M100 24V676Q100 686 107 693T124 700T141 693T149 676V24Q149 14 142 7T124 0T107 7T100 24Z" />
<glyph unicode="m" glyph-name="m" horiz-adv-x="951" d="M119 0H113Q98 2 93 18V466Q93 476 100 482T116 489T133 483T140 466V419Q199 489 291 489Q347 489 393 461T466 385Q493 432 540 460T642 489Q724 489 782 431T841 290V23Q841 14 834 7T817 0T801 7T794
23V290Q792 353 748 397T642 442T536 397T491 290V20L490 18V16Q488 9 480 5T466 0H461L453 4Q452 4 449 8T445 13T444 15T442 18V290Q442 353 398 397T291 442T184 398T140 290V23Q140 10 129 4Q125 0 119 0Z" />
<glyph unicode="n" glyph-name="n" horiz-adv-x="613" d="M140 20Q135 0 117 0H111Q100 3 95 13Q94 14 94 16L93 18V465Q93 475 100 482T117 489T133 482T140 465V418Q199 489 286 489T432 431T491 290V24Q491 14 484 7T467 0T450 7T443 24V290Q443 352 399 396T293
441T186 397T140 290V20Z" />
<glyph unicode="o" glyph-name="o" horiz-adv-x="625" d="M70 145T70 245T138 417T302 490T466 418T534 245T466 73T302 0T138 72ZM227 443T173 385T118 246T172 106T302 48T431 106T486 245T432 385T302 443Z" />
<glyph unicode="p" glyph-name="p" horiz-adv-x="660" d="M93 -181V466Q93 476 100 483T117 490T134 483T142 466V395Q174 439 223 464T328 490Q427 490 496 419T565 248T496 75T328 3Q272 3 223 29T142 99V-181Q142 -191 135 -198T117 -205T100 -198T93 -181ZM142
247Q142 166 197 109T328 51Q406 52 461 109T516 247T461 384T330 441T200 387T142 255V247Z" />
<glyph unicode="q" glyph-name="q" horiz-adv-x="660" d="M483 -181V99Q450 54 401 28T295 2Q198 3 129 75T60 247T129 418T295 490Q352 490 401 464T483 394V466Q483 476 490 483T507 490T525 483T532 466V-181Q532 -191 525 -198T508 -205T490 -198T483 -181ZM109
328T109 247T163 109T295 51Q373 52 428 109T483 247T428 384T296 441T164 385Z" />
<glyph unicode="r" glyph-name="r" horiz-adv-x="439" d="M93 24V465Q93 475 100 482T117 489T134 482T141 465V357Q145 365 148 369Q225 489 344 489Q354 489 361 482T368 465T361 448T344 441Q264 441 202 361Q166 313 143 247Q141 243 141 239V24Q141 14 134
7T117 0T100 7T93 24Z" />
<glyph unicode="s" glyph-name="s" horiz-adv-x="492" d="M62 70Q53 78 53 86T59 102T75 111T93 105Q171 48 235 48T336 78Q373 103 373 136T340 196T234 234L232 235Q154 249 121 273Q68 304 68 361T121 457Q169 490 241 490Q270 490 299 481T344 463T387 437Q395
431 397 421T394 403T379 393T361 396Q336 413 324 420T287 436T241 445Q183 445 150 419T117 363T145 312Q180 288 245 278H247Q312 268 366 238Q421 202 421 142T367 41T243 0Q148 1 62 70Z" />
<glyph unicode="t" glyph-name="t" horiz-adv-x="400" d="M240 490Q249 490 256 483T264 466T257 450T240 442H177V85Q177 69 189 59T212 49T230 41T238 24T230 8T213 0Q176 0 152 24T127 85V442H66Q50 442 46 448T42 464T43 478Q46 490 66 490H127V672Q127 681
134 688T151 696T169 689T177 672V490H240Z" />
<glyph unicode="u" glyph-name="u" horiz-adv-x="613" d="M83 200V467Q83 477 90 484T107 491T124 484T131 467V200Q131 137 175 93T281 48Q344 49 388 93T433 200V467Q433 477 440 484T458 491T475 484T482 467V200Q482 117 424 59T282 0T141 58T83 200Z" />
<glyph unicode="v" glyph-name="v" horiz-adv-x="582" d="M56 462Q56 477 70 484Q74 486 79 486Q96 486 101 471L264 85L427 471Q432 486 449 486Q454 486 458 484Q473 478 473 469T470 453L287 19Q282 0 265 0Q257 0 256 1T250 4Q244 10 242 15L58 453Q56 458 56 462Z" />
<glyph unicode="w" glyph-name="w" horiz-adv-x="861" d="M544 0H539Q523 2 520 15L519 16L405 287L292 17Q291 16 291 15Q286 0 270 0Q261 0 257 4Q250 7 247 15L63 453Q61 458 61 462Q61 477 75 484Q80 486 84 486Q101 486 106 471L269 85L382 354Q389 369 405
369T429 354L542 85L704 471Q711 486 727 486Q741 486 748 471Q750 466 750 462T748 453L565 17Q562 10 556 5T544 0Z" />
<glyph unicode="x" glyph-name="x" horiz-adv-x="570" d="M79 5Q69 13 69 21T74 38L224 243L74 449Q69 457 69 466T76 481T89 487Q106 487 112 477L254 284L395 477Q402 487 412 487T430 481T439 466T434 449L283 243L434 38Q439 30 439 22T427 5Q422 0 412 0T395
10L254 203L112 10Q106 0 97 0T79 5Z" />
<glyph unicode="y" glyph-name="y" horiz-adv-x="588" d="M429 490Q450 485 450 467V39Q450 -57 382 -124T217 -191Q167 -191 116 -168Q103 -159 103 -151T108 -132T122 -122T137 -124Q175 -143 217 -143Q293 -143 347 -90T402 39V71Q340 1 254 1T110 60T52 201V467Q52
477 59 483T76 490T93 484T100 467V201Q100 138 144 94T250 50T357 94T402 201V467Q402 475 404 477T407 480T408 482Q408 486 418 489H420Q422 490 423 490H429Z" />
<glyph unicode="z" glyph-name="z" horiz-adv-x="554" d="M85 0Q61 0 61 24V25Q61 36 69 42L358 438H85Q75 438 68 445T61 462T68 479T85 486H402Q403 486 407 486Q415 486 422 479T430 466T428 454T419 443L131 48H405Q415 48 422 41T429 24T422 7T405 0H85Z" />
<glyph unicode="{" glyph-name="braceleft" horiz-adv-x="480" d="M427 -123Q427 -140 411 -140Q409 -140 406 -139Q287 -115 246 -69T205 62V141Q205 205 179 236T79 268Q55 268 55 287T79 306Q152 306 178 337T205 433V512Q205 596 246 642T406 713Q409 714
411 714Q427 714 427 697Q427 685 415 681Q311 654 283 620T254 506V431Q254 368 228 335T150 287Q204 269 229 238T254 143V68Q254 -11 282 -45T415 -107Q427 -111 427 -123Z" />
<glyph unicode="|" glyph-name="bar" horiz-adv-x="286" d="M121 -110V780Q121 789 127 795T143 802T158 796T165 780V-110Q165 -119 159 -125T143 -132T128 -126T121 -110Z" />
<glyph unicode="}" glyph-name="braceright" horiz-adv-x="480" d="M53 697Q53 714 69 714Q71 714 74 713Q193 689 234 643T275 512V433Q275 369 301 338T401 306Q425 306 425 287T401 268Q328 268 302 237T275 141V62Q275 -22 234 -68T74 -139Q71 -140 69 -140Q53
-140 53 -123Q53 -111 65 -107Q169 -80 197 -46T226 68V143Q226 206 252 239T330 287Q276 305 251 336T226 431V506Q226 585 198 619T65 681Q53 685 53 697Z" />
<glyph unicode="~" glyph-name="asciitilde" horiz-adv-x="460" d="M103 240Q85 240 85 257Q85 263 87 269Q101 311 119 327T162 344T232 324T294 303T320 311T339 341Q346 355 357 355Q375 355 375 338Q375 332 373 326Q359 284 341 268T298 251T228 271T166
292T140 284T121 254Q114 240 103 240Z" />
</font>
</defs>
</svg>
